<?xml version="1.0" standalone="no"?>
<!DOCTYPE svg PUBLIC "-//W3C//DTD SVG 1.1//EN" "http://www.w3.org/Graphics/SVG/1.1/DTD/svg11.dtd" >
<svg xmlns="http://www.w3.org/2000/svg">
<metadata>Generated by IcoMoon</metadata>
<defs>
<font id="icomoon" horiz-adv-x="1024">
<font-face units-per-em="1024" ascent="896" descent="-128" />
<missing-glyph horiz-adv-x="1024" />
<glyph unicode="&#x20;" horiz-adv-x="0" d="" />
<glyph unicode="&#xe63b;" glyph-name="xiazai" horiz-adv-x="1055" d="M1054.964 239.852v-321.23c0-0.011 0-0.025 0-0.038 0-25.714-20.834-46.562-46.543-46.584h-961.875c-25.711 0.022-46.546 20.87-46.546 46.584 0 0.013 0 0.027 0 0.040v-0.002 321.23c0 0.002 0 0.004 0 0.007 0 25.706 20.839 46.545 46.545 46.545s46.545-20.839 46.545-46.545c0-0.002 0-0.005 0-0.007v0-274.621h868.782v274.621c0 0.002 0 0.004 0 0.007 0 25.706 20.839 46.545 46.545 46.545s46.545-20.839 46.545-46.545c0-0.002 0-0.005 0-0.007v0zM495.337 98.067c8.411-8.455 20.054-13.688 32.92-13.688s24.509 5.233 32.918 13.686l0.002 0.002 290.801 291.246c8.441 8.436 13.663 20.094 13.663 32.971 0 25.744-20.87 46.614-46.614 46.614-12.867 0-24.517-5.214-32.952-13.644v0l-211.183-211.603v607.29c-0.854 25.064-21.378 45.057-46.571 45.057s-45.717-19.994-46.569-44.979l-0.002-0.078v-607.417l-211.298 211.641c-8.341 7.945-19.656 12.833-32.113 12.833-25.734 0-46.596-20.862-46.596-46.596 0-12.488 4.913-23.829 12.911-32.195l-0.017 0.018zM495.337 98.067" />
<glyph unicode="&#xe649;" glyph-name="yidong" d="M192 640h640v-64h-640v64zM192 448h640v-64h-640v64zM192 256h640v-64h-640v64z" />
<glyph unicode="&#xe64a;" glyph-name="xuanxiang" d="M492.864 57.216c-15.445 0.141-27.91 12.694-27.91 28.159 0 1.902 0.189 3.76 0.548 5.557l-0.030-0.18c1.472 37.888 0.512 388.928-0.512 621.888 0 0.038 0 0.083 0 0.128 0 15.225 12.306 27.575 27.513 27.648h0.135c15.232 0 27.648-12.288 27.712-27.52 0 0 0.704-156.928 1.152-313.856 0.192-78.528 0.256-156.992 0.192-216-0.256-123.328-0.256-123.328-26.432-125.696-0.768-0.128-1.6-0.128-2.368-0.128zM334.912 370.496h-57.28c-123.392 0.256-123.392 0.256-125.76 26.432-0.059 0.683-0.093 1.477-0.093 2.279 0 15.482 12.55 28.032 28.032 28.032 1.958 0 3.869-0.201 5.714-0.583l-0.182 0.031c37.888-1.6 388.8-0.576 621.824 0.512h0.064c0.029 0 0.062 0 0.096 0 15.287 0 27.68-12.393 27.68-27.68 0-15.254-12.338-27.625-27.579-27.68h-0.005s-156.864-0.768-313.856-1.152l-158.656-0.192zM583.936 622.656c-0.001 0-0.003 0-0.004 0-7.65 0-14.574 3.107-19.579 8.127l-0.001 0.001-70.4 70.272-70.272-70.4c-5.020-5.020-11.955-8.125-19.616-8.125-15.321 0-27.741 12.42-27.741 27.741 0 7.661 3.105 14.596 8.125 19.616l89.984 89.984c10.88 10.88 28.352 10.88 39.168 0l89.984-89.984c5.024-5.007 8.132-11.932 8.132-19.584 0-15.27-12.378-27.648-27.648-27.648-0.046 0-0.093 0-0.139 0h0.007zM494.080 35.968c-0.001 0-0.003 0-0.004 0-7.65 0-14.574 3.107-19.579 8.127l-89.985 89.985c-5.007 5.014-8.103 11.938-8.103 19.584 0 15.309 12.41 27.719 27.719 27.719 7.662 0 14.598-3.109 19.616-8.134v0l70.336-70.336 70.4 70.4c5.014 5.007 11.938 8.103 19.584 8.103 15.309 0 27.719-12.41 27.719-27.719 0-7.662-3.109-14.598-8.134-19.616v0l-89.984-89.984c-5.006-5.021-11.93-8.128-19.58-8.128-0.001 0-0.003 0-0.004 0v0zM742.336 284.416c-0.059 0-0.128-0.001-0.198-0.001-15.27 0-27.648 12.378-27.648 27.648 0 7.716 3.161 14.694 8.258 19.709l70.34 70.276-70.4 70.4c-5.007 5.014-8.103 11.938-8.103 19.584 0 15.309 12.41 27.719 27.719 27.719 7.662 0 14.598-3.109 19.616-8.134v0l89.984-90.048c10.88-10.88 10.88-28.352 0-39.168l-89.984-89.984c-5.032-4.946-11.938-8-19.557-8-0.010 0-0.019 0-0.029 0h0.001zM245.696 284.416c-0.001 0-0.003 0-0.004 0-7.65 0-14.574 3.107-19.579 8.127l-0.001 0.001-89.984 89.856c-5.024 5.007-8.132 11.932-8.132 19.584s3.108 14.577 8.131 19.583l89.985 89.985c5.014 5.007 11.938 8.103 19.584 8.103 15.309 0 27.719-12.41 27.719-27.719 0-7.662-3.109-14.598-8.134-19.616l-70.4-70.336 70.4-70.4c4.985-5 8.068-11.9 8.068-19.52 0-15.27-12.378-27.648-27.648-27.648-0.001 0-0.003 0-0.004 0v0z" />
<glyph unicode="&#xe64f;" glyph-name="succeed" d="M512-62.464h-1.024c-246.272 0.512-445.952 201.728-445.44 448 0.077 123.328 50.377 234.892 131.552 315.36l0.032 0.032c80.341 80.048 191.174 129.538 313.567 129.538 0.462 0 0.923-0.001 1.384-0.002h0.953c123.328-0.077 234.892-50.377 315.36-131.552l0.032-0.032c80.355-80.364 130.055-191.38 130.055-314.005 0-0.848-0.002-1.695-0.007-2.541l0.001 0.13c-0.077-123.328-50.377-234.892-131.552-315.36l-0.032-0.032c-80.341-80.048-191.174-129.538-313.567-129.538-0.462 0-0.923 0.001-1.384 0.002h0.071zM512 766.464c-0.348 0.001-0.76 0.002-1.172 0.002-104.884 0-199.852-42.453-268.659-111.112l0.006 0.006c-69.44-69.308-112.399-165.127-112.399-270.98 0-210.862 170.468-381.908 381.11-382.844h1.113c0.393-0.001 0.858-0.002 1.323-0.002 104.929 0 199.893 42.669 268.485 111.603l0.015 0.016c69.567 68.902 112.64 164.445 112.64 270.048 0 0.101 0 0.202 0 0.304v-0.016c0.001 0.362 0.002 0.79 0.002 1.218 0 105.192-42.439 200.472-111.128 269.653l0.022-0.022c-68.902 69.567-164.445 112.64-270.048 112.64-0.101 0-0.202 0-0.304 0h0.016c-0.512-0.512-0.512-0.512-1.024-0.512zM459.264 205.824c-17.798 0.069-32.199 14.512-32.199 32.32 0 8.242 3.085 15.764 8.164 21.473l-0.029-0.033 263.168 292.864c5.853 5.873 13.949 9.506 22.894 9.506 17.85 0 32.32-14.47 32.32-32.32 0-7.669-2.671-14.715-7.134-20.257l0.049 0.062-263.168-292.864c-5.968-6.573-14.529-10.698-24.054-10.752h-0.010zM456.704 205.312c-9.269 0.103-17.606 4.008-23.54 10.227l-0.012 0.013-155.136 164.864c-5.473 5.713-8.843 13.48-8.843 22.034 0 9.309 3.991 17.686 10.355 23.513l0.024 0.022c5.713 5.473 13.48 8.843 22.034 8.843 9.309 0 17.686-3.991 23.513-10.355l0.022-0.024 155.136-164.864c5.473-5.713 8.843-13.48 8.843-22.034 0-9.309-3.991-17.686-10.355-23.513l-0.024-0.022c-5.793-5.305-13.51-8.591-21.993-8.704h-0.023z" />
<glyph unicode="&#xe650;" glyph-name="defeated" d="M512-62.464c-246.272 0-446.976 200.192-446.976 446.464s200.704 446.464 446.976 446.464c246.487-0.218 446.246-199.977 446.464-446.443v-0.021c-0.218-246.487-199.977-446.246-446.443-446.464h-0.021zM512 766.464c-211.141-0.218-382.245-171.323-382.464-382.443v-0.021c0.218-211.141 171.323-382.245 382.443-382.464h0.021c211.141 0.218 382.245 171.323 382.464 382.443v0.021c-0.218 211.141-171.323 382.245-382.443 382.464h-0.021zM330.752 170.496c-0.041 0-0.089 0-0.137 0-8.734 0-16.645 3.52-22.393 9.219l0.002-0.002c-5.917 5.791-9.585 13.859-9.585 22.784s3.668 16.993 9.579 22.778l362.502 362.502c12.8 12.8 32.768 12.8 45.568 0s12.8-32.768 0-45.568l-363.008-361.984c-5.74-5.871-13.687-9.562-22.497-9.728h-0.031zM693.248 170.496c-0.041 0-0.089 0-0.137 0-8.734 0-16.645 3.52-22.393 9.219l0.002-0.002-362.496 363.008c-12.8 12.8-12.8 32.768 0 45.568s32.768 12.8 45.568 0l362.496-362.496c12.8-12.8 12.8-32.768 0-45.568-5.974-5.803-14.055-9.463-22.99-9.727l-0.050-0.001z" />
<glyph unicode="&#xe651;" glyph-name="down" d="M192 448h640v-128h-640z" />
<glyph unicode="&#xe652;" glyph-name="up" d="M576 704v-256h256.192v-128h-256.192v-256.192h-128v256.192h-256v128h256v256h128z" />
<glyph unicode="&#xe66c;" glyph-name="nextpage" d="M909.949 349.376l0.256 0.32c0.366 0.483 0.829 1.129 1.279 1.785l0.129 0.199 0.384 0.64c0.231 0.346 0.591 0.931 0.941 1.523l0.147 0.269 0.448 0.768c0.176 0.279 0.495 0.844 0.804 1.415l0.156 0.313 0.448 0.832c0.137 0.238 0.415 0.805 0.684 1.378l0.148 0.35 0.384 0.832c0.116 0.215 0.374 0.805 0.623 1.401l0.145 0.391 0.32 0.768c0.11 0.23 0.348 0.866 0.576 1.507l0.128 0.413 0.256 0.64c0.108 0.264 0.327 0.946 0.533 1.633l0.107 0.415 0.192 0.64c0.103 0.285 0.301 0.991 0.486 1.703l0.090 0.409 0.128 0.64c0.088 0.309 0.244 1.021 0.386 1.739l0.062 0.373 0.192 0.768c0.071 0.334 0.183 1.031 0.283 1.732l0.037 0.316 0.128 0.96 0.192 1.792 0.128 1.408 0.128 1.472c0.045 0.86 0.070 1.867 0.070 2.88s-0.025 2.020-0.076 3.021l0.006-0.141-0.128 1.472-0.128 1.344-0.192 1.92-0.128 0.896c-0.137 1.020-0.25 1.717-0.374 2.41l0.054-0.362-0.192 0.768c-0.209 1.078-0.364 1.768-0.532 2.454l0.084-0.406-0.128 0.64c-0.271 1.106-0.469 1.813-0.68 2.514l0.104-0.402c0 0.256-0.128 0.448-0.192 0.64-0.313 1.103-0.532 1.785-0.762 2.461l0.122-0.413-0.256 0.704c-0.354 1.048-0.592 1.684-0.841 2.314l0.137-0.394-0.32 0.768c-0.384 1.001-0.643 1.613-0.912 2.219l0.144-0.363-0.384 0.768c-0.421 0.931-0.699 1.498-0.986 2.060l0.154-0.332-0.448 0.832c-0.459 0.872-0.778 1.438-1.106 1.997l0.146-0.269-0.448 0.768c-0.497 0.861-0.857 1.446-1.227 2.023l0.139-0.231-0.384 0.64c-0.572 0.816-1.035 1.441-1.509 2.056l0.101-0.136-0.256 0.384c-1.939 2.6-3.954 4.898-6.133 7.029l-233.547 233.611c-10.581 10.581-25.198 17.125-41.344 17.125-32.292 0-58.469-26.178-58.469-58.469 0-16.146 6.544-30.763 17.125-41.344l134.080-134.080h-560.512c-32.306 0-58.496-26.19-58.496-58.496s26.19-58.496 58.496-58.496h560.512l-134.080-134.080c-10.581-10.581-17.125-25.198-17.125-41.344 0-32.292 26.178-58.469 58.469-58.469 16.146 0 30.763 6.544 41.344 17.125v0l233.6 233.6c2.164 2.138 4.158 4.437 5.967 6.881l0.113 0.159z" />
<glyph unicode="&#xe66d;" glyph-name="nextpage1" d="M909.949 349.376l0.256 0.32c0.366 0.483 0.829 1.129 1.279 1.785l0.129 0.199 0.384 0.64c0.231 0.346 0.591 0.931 0.941 1.523l0.147 0.269 0.448 0.768c0.176 0.279 0.495 0.844 0.804 1.415l0.156 0.313 0.448 0.832c0.137 0.238 0.415 0.805 0.684 1.378l0.148 0.35 0.384 0.832c0.116 0.215 0.374 0.805 0.623 1.401l0.145 0.391 0.32 0.768c0.11 0.23 0.348 0.866 0.576 1.507l0.128 0.413 0.256 0.64c0.108 0.264 0.327 0.946 0.533 1.633l0.107 0.415 0.192 0.64c0.103 0.285 0.301 0.991 0.486 1.703l0.090 0.409 0.128 0.64c0.088 0.309 0.244 1.021 0.386 1.739l0.062 0.373 0.192 0.768c0.071 0.334 0.183 1.031 0.283 1.732l0.037 0.316 0.128 0.96 0.192 1.792 0.128 1.408 0.128 1.472c0.045 0.86 0.070 1.867 0.070 2.88s-0.025 2.020-0.076 3.021l0.006-0.141-0.128 1.472-0.128 1.344-0.192 1.92-0.128 0.896c-0.137 1.020-0.25 1.717-0.374 2.41l0.054-0.362-0.192 0.768c-0.209 1.078-0.364 1.768-0.532 2.454l0.084-0.406-0.128 0.64c-0.271 1.106-0.469 1.813-0.68 2.514l0.104-0.402c0 0.256-0.128 0.448-0.192 0.64-0.313 1.103-0.532 1.785-0.762 2.461l0.122-0.413-0.256 0.704c-0.354 1.048-0.592 1.684-0.841 2.314l0.137-0.394-0.32 0.768c-0.384 1.001-0.643 1.613-0.912 2.219l0.144-0.363-0.384 0.768c-0.421 0.931-0.699 1.498-0.986 2.060l0.154-0.332-0.448 0.832c-0.459 0.872-0.778 1.438-1.106 1.997l0.146-0.269-0.448 0.768c-0.497 0.861-0.857 1.446-1.227 2.023l0.139-0.231-0.384 0.64c-0.572 0.816-1.035 1.441-1.509 2.056l0.101-0.136-0.256 0.384c-1.939 2.6-3.954 4.898-6.133 7.029l-233.547 233.611c-10.581 10.581-25.198 17.125-41.344 17.125-32.292 0-58.469-26.178-58.469-58.469 0-16.146 6.544-30.763 17.125-41.344l134.080-134.080h-560.512c-32.306 0-58.496-26.19-58.496-58.496s26.19-58.496 58.496-58.496h560.512l-134.080-134.080c-10.581-10.581-17.125-25.198-17.125-41.344 0-32.292 26.178-58.469 58.469-58.469 16.146 0 30.763 6.544 41.344 17.125v0l233.6 233.6c2.164 2.138 4.158 4.437 5.967 6.881l0.113 0.159z" />
<glyph unicode="&#xe66e;" glyph-name="correct" d="M922.88 675.392l-68.608 56c-2.802 2.286-6.418 3.671-10.357 3.671-5.092 0-9.644-2.314-12.661-5.948l-0.022-0.027-394.496-483.072-254.592 208c-2.804 2.289-6.422 3.676-10.364 3.676-5.124 0-9.7-2.343-12.717-6.016l-0.023-0.029-56-68.544c-2.301-2.808-3.696-6.436-3.696-10.389 0-5.075 2.298-9.612 5.91-12.63l0.026-0.021 264.192-215.744c0.889-1.142 1.855-2.149 2.915-3.048l0.029-0.024 68.608-56c7.040-5.76 17.344-4.736 23.104 2.304l461.248 564.672c2.328 2.809 3.74 6.449 3.74 10.42 0 5.172-2.397 9.785-6.14 12.787l-0.032 0.025z" />
<glyph unicode="&#xe70d;" glyph-name="delete" d="M960 708.8h-207.168v39.168c-0.109 71.108-57.724 128.723-128.822 128.832h-224.010c-71.093-0.145-128.687-57.739-128.832-128.818v-39.182h-207.168c-24.76 0-44.832-20.072-44.832-44.832s20.072-44.832 44.832-44.832v0h67.2v-599.168c0-70.976 57.792-128.832 128.832-128.832h504c71.080 0.145 128.659 57.746 128.768 128.821v599.179h67.2c24.76 0 44.832 20.072 44.832 44.832s-20.072 44.832-44.832 44.832v0zM803.2 619.136v-599.168c0-21.632-17.536-39.168-39.168-39.168v0h-504c0 0 0 0 0 0-21.645 0-39.195 17.528-39.232 39.164v599.172h582.4zM400 512.768c-24.742 0-44.8-20.058-44.8-44.8v0-336c0-24.742 20.058-44.8 44.8-44.8s44.8 20.058 44.8 44.8v336c0 24.742-20.058 44.8-44.8 44.8v0zM624 512.768c-24.742 0-44.8-20.058-44.8-44.8v-336c0-24.742 20.058-44.8 44.8-44.8s44.8 20.058 44.8 44.8v0 336c0 24.742-20.058 44.8-44.8 44.8v0zM624 787.136c21.632 0 39.168-17.536 39.168-39.168v-39.168h-302.336v39.168c0 21.632 17.536 39.168 39.168 39.168h224z" />
<glyph unicode="&#xe711;" glyph-name="unfold_d" d="M747.456 368.64l-235.072-179.648-235.072 185.664c-6.445 5.388-14.797 8.687-23.918 8.768h-0.018c-20.978-0.024-37.974-17.035-37.974-38.016 0-11.698 5.284-22.162 13.595-29.136l0.059-0.048 259.008-205.44c14.080-11.52 34.24-11.52 48.256 0l259.008 198.976c8.962 7.009 14.669 17.824 14.669 29.971 0 20.96-16.992 37.952-37.952 37.952-9.405 0-18.011-3.421-24.641-9.087l0.052 0.044zM488.064 392.128c14.080-11.52 34.24-11.52 48.256 0l259.008 199.040c8.795 7.013 14.382 17.727 14.382 29.746 0 19.669-14.963 35.844-34.127 37.762l-0.159 0.013c-1.192 0.133-2.574 0.208-3.974 0.208-9.13 0-17.507-3.218-24.061-8.582l0.068 0.054-235.072-179.968-235.072 185.728c-6.451 5.365-14.805 8.642-23.922 8.704h-0.014c-20.978-0.024-37.974-17.035-37.974-38.016 0-11.698 5.284-22.162 13.595-29.136l0.059-0.048 259.008-205.44z" />
<glyph unicode="&#xe712;" glyph-name="unfold_t" d="M747.456 398.336l-235.072 179.584-235.072-185.664c-6.445-5.388-14.797-8.687-23.918-8.768h-0.018c-20.978 0.024-37.974 17.035-37.974 38.016 0 11.698 5.284 22.162 13.595 29.136l0.059 0.048 259.008 205.504c6.504 5.388 14.934 8.657 24.128 8.657s17.624-3.269 24.191-8.708l-0.063 0.051 259.008-199.040c8.962-7.009 14.669-17.824 14.669-29.971 0-20.96-16.992-37.952-37.952-37.952-9.405 0-18.011 3.421-24.641 9.087l0.052-0.044zM488.064 374.784c6.504 5.388 14.934 8.657 24.128 8.657s17.624-3.269 24.191-8.708l-0.063 0.051 259.008-199.040c8.795-7.013 14.382-17.727 14.382-29.746 0-19.669-14.963-35.844-34.127-37.762l-0.159-0.013c-1.192-0.133-2.574-0.208-3.974-0.208-9.13 0-17.507 3.218-24.061 8.582l0.068-0.054-235.072 179.968-235.072-185.664c-6.445-5.388-14.797-8.687-23.918-8.768h-0.018c-20.978 0.024-37.974 17.035-37.974 38.016 0 11.698 5.284 22.162 13.595 29.136l0.059 0.048 259.008 205.44z" />
<glyph unicode="&#xe723;" glyph-name="column" d="M373.568 798.464c16.768 0 31.68-5.632 43.84-17.728 12.16-12.16 18.624-26.112 18.624-42.88v-246.208c0-0.011 0-0.024 0-0.037 0-17.174-7.136-32.682-18.605-43.72l-0.019-0.019c-11.061-11.526-26.594-18.688-43.8-18.688-0.014 0-0.028 0-0.042 0h-247.998c-0.012 0-0.026 0-0.040 0-17.206 0-32.738 7.162-43.78 18.667l-0.020 0.021c-10.943 10.299-17.758 24.877-17.758 41.048 0 0.644 0.011 1.286 0.032 1.925l-0.002-0.093v246.144c-0.019 0.546-0.030 1.188-0.030 1.832 0 16.17 6.815 30.749 17.729 41.021l0.029 0.027c10.624 10.958 25.48 17.759 41.926 17.759 0.673 0 1.344-0.011 2.011-0.034l-0.097 0.003h248v0.96zM373.568 306.112c16.768 0 31.68-5.568 43.84-17.728s18.624-26.112 18.624-42.88v-247.040c0.003-0.216 0.005-0.471 0.005-0.727 0-16.701-7.163-31.728-18.585-42.178l-0.043-0.039c-10.84-10.958-25.878-17.743-42.502-17.743-0.471 0-0.94 0.005-1.408 0.016l0.069-0.001h-248c-0.398-0.010-0.868-0.015-1.338-0.015-16.623 0-31.662 6.785-42.496 17.738l-0.005 0.005c-10.928 9.975-17.758 24.28-17.758 40.18 0 0.634 0.011 1.266 0.032 1.895l-0.002-0.091v247.040c-0.019 0.546-0.030 1.188-0.030 1.832 0 16.17 6.815 30.749 17.729 41.021l0.029 0.027c10.624 10.958 25.48 17.759 41.926 17.759 0.673 0 1.344-0.011 2.011-0.034l-0.097 0.003h248v0.96zM871.488 306.112c16.768 0 31.68-5.568 43.84-17.728 12.096-12.16 17.664-26.112 17.664-42.88v-247.040c0.022-0.582 0.034-1.266 0.034-1.953 0-16.141-6.79-30.697-17.67-40.965l-0.027-0.026c-10.277-11.477-25.14-18.666-41.682-18.666-0.759 0-1.515 0.015-2.266 0.045l0.108-0.003h-248.128c-0.398-0.010-0.867-0.015-1.338-0.015-16.592 0-31.604 6.76-42.434 17.675l-0.004 0.004c-11.503 10.725-18.677 25.964-18.688 42.878v247.106c0 16.832 6.528 31.744 18.688 42.88 10.84 10.957 25.878 17.742 42.5 17.742 0.449 0 0.896-0.005 1.342-0.015l-0.066 0.001h248.064v0.96zM942.336 658.56c10.344-9.889 16.775-23.798 16.775-39.208 0-0.301-0.002-0.601-0.007-0.901l0.001 0.045c0-0.055 0-0.121 0-0.186 0-15.339-6.431-29.175-16.745-38.96l-0.024-0.022-158.528-157.568c-9.894-10.382-23.827-16.838-39.268-16.838-0.28 0-0.559 0.002-0.838 0.006l0.042-0.001c-15.687 0.129-29.853 6.538-40.127 16.831l-158.465 158.465c-11.2 10.24-15.872 23.36-15.872 39.168 0.023 15.534 6.058 29.653 15.902 40.161l-0.030-0.033 158.464 157.568c10.746 9.177 24.77 14.799 40.104 14.912h0.024c14.912 0 27.968-5.568 40.064-15.872l158.528-157.568z" />
<glyph unicode="&#xe759;" glyph-name="arrow-down-bold" d="M792.619 524.203c-5.374 5.643-12.944 9.152-21.333 9.152s-15.959-3.509-21.322-9.14l-0.011-0.012-237.696-237.739-237.739 237.739c-5.374 5.643-12.944 9.152-21.333 9.152s-15.959-3.509-21.322-9.14l-0.011-0.012c-5.643-5.374-9.152-12.944-9.152-21.333s3.509-15.959 9.14-21.322l0.012-0.011 259.072-259.072c5.416-5.576 12.961-9.058 21.32-9.131h0.014c8.372 0.073 15.918 3.555 21.326 9.123l259.036 259.079c5.643 5.374 9.152 12.944 9.152 21.333s-3.509 15.959-9.14 21.322l-0.012 0.011z" />
<glyph unicode="&#xe75a;" glyph-name="arrow-right-bold" d="M361.387 653.696c-5.643-5.374-9.152-12.944-9.152-21.333s3.509-15.959 9.14-21.322l0.012-0.011 237.739-237.696-237.739-237.739c-5.643-5.374-9.152-12.944-9.152-21.333s3.509-15.959 9.14-21.322l0.012-0.011c5.374-5.643 12.944-9.152 21.333-9.152s15.959 3.509 21.322 9.14l0.011 0.012 259.072 259.072c5.576 5.416 9.058 12.961 9.131 21.32v0.014c-0.073 8.372-3.555 15.918-9.123 21.326l-259.079 259.036c-5.374 5.643-12.944 9.152-21.333 9.152s-15.959-3.509-21.322-9.14l-0.011-0.012z" />
<glyph unicode="&#xe75c;" glyph-name="customer" d="M1024 448v-128c0-26.539-16.427-50.261-41.216-59.648-41.259-179.231-178.243-318.349-353.031-362.049l-3.321-0.703c-11.8-15.614-30.334-25.6-51.2-25.6v0h-128c-35.346 0-64 28.654-64 64s28.654 64 64 64v0h128c24.021 0 46.037-13.611 56.832-35.072 143.636 43.496 252.744 158.805 286.674 303.104l0.558 2.816c-14.241 11.754-23.259 29.396-23.296 49.146v128.006c0.085 20.139 9.557 39.040 25.6 51.2-41.464 191.172-208.981 332.35-409.551 332.8h-5.681c-198.577-2.853-363.485-143.559-403.476-330.567l-0.492-2.745c16.213-11.989 25.728-31.019 25.6-51.2v-128c0-35.346-28.654-64-64-64s-64 28.654-64 64v0 128c0 0.057 0 0.126 0 0.194 0 26.093 15.741 48.51 38.246 58.272l0.411 0.159c44.295 221.646 235.891 386.811 466.613 389.885l0.331 0.003h6.4c233.068-0.107 427.411-165.78 471.8-385.778l0.52-3.086c23.979-9.813 39.68-33.195 39.68-59.136zM753.664 222.72c2.423 4.398 3.848 9.64 3.848 15.215 0 17.673-14.327 32-32 32-11.566 0-21.699-6.136-27.321-15.33l-0.080-0.14c-37.857-65.066-107.26-108.108-186.717-108.108-59.83 0-113.96 24.405-152.978 63.803l-0.017 0.017c-12.965 12.825-24.178 27.381-33.274 43.303l-0.518 0.985c-5.523 10.071-16.053 16.785-28.152 16.785-17.673 0-32-14.327-32-32 0-6.107 1.711-11.815 4.679-16.67l-0.080 0.14c11.947-21.248 26.88-40.747 44.288-57.856 50.578-50.996 120.675-82.567 198.145-82.567 103.106 0 193.151 55.921 241.459 139.088l0.716 1.335z" />
<glyph unicode="&#xe75e;" glyph-name="arrow-up-bold" d="M231.893 222.464c5.374-5.643 12.944-9.152 21.333-9.152s15.959 3.509 21.322 9.14l0.011 0.012 237.696 237.739 237.739-237.739c5.374-5.643 12.944-9.152 21.333-9.152s15.959 3.509 21.322 9.14l0.011 0.012c5.643 5.374 9.152 12.944 9.152 21.333s-3.509 15.959-9.14 21.322l-0.012 0.011-259.072 259.072c-5.416 5.576-12.961 9.058-21.32 9.131h-0.014c-8.372-0.073-15.918-3.555-21.326-9.123l-259.036-259.079c-5.643-5.374-9.152-12.944-9.152-21.333s3.509-15.959 9.14-21.322l0.012-0.011z" />
<glyph unicode="&#xe762;" glyph-name="location-fill" d="M508.715 846.208c-194.261 0-352.256-157.995-352.256-352.256 0-184.235 294.827-498.347 328.363-533.589l23.893-25.003 23.893 25.003c33.579 35.243 328.32 349.483 328.32 533.589 0 194.261-157.995 352.256-352.213 352.256zM508.715 322.688c-91.639 0.121-165.895 74.377-166.016 166.004v0.012c0.121 91.624 74.352 165.87 165.959 166.016h0.014c91.624-0.121 165.87-74.352 166.016-165.959v-0.014c-0.121-91.624-74.352-165.87-165.959-166.016h-0.014z" />
<glyph unicode="&#xe766;" glyph-name="more" d="M384 704c23.467 0 42.667-19.2 42.667-42.667v-149.333c0-23.467-19.2-42.667-42.667-42.667h-149.333c-23.467 0-42.667 19.2-42.667 42.667v149.333c0 23.467 19.2 42.667 42.667 42.667h149.333M384 746.667h-149.333c-46.933 0-85.333-38.4-85.333-85.333v-149.333c0-46.933 38.4-85.333 85.333-85.333h149.333c46.933 0 85.333 38.4 85.333 85.333v149.333c0 46.933-38.4 85.333-85.333 85.333zM714.667 721.067c10.667 0 21.333-4.267 29.867-12.8l91.733-91.733c17.067-17.067 17.067-42.667 0-59.733l-91.733-91.733c-8.533-8.533-19.2-12.8-29.867-12.8s-21.333 4.267-29.867 12.8l-91.733 91.733c-17.067 17.067-17.067 42.667 0 59.733l91.733 91.733c8.533 8.533 19.2 12.8 29.867 12.8M714.667 763.733c-21.333 0-44.8-8.533-59.733-25.6l-91.733-91.733c-34.133-34.133-34.133-87.467 0-121.6l91.733-91.733c17.067-17.067 38.4-25.6 59.733-25.6s44.8 8.533 59.733 25.6l91.733 91.733c34.133 34.133 34.133 87.467 0 121.6l-91.733 91.733c-14.933 17.067-38.4 25.6-59.733 25.6zM384 298.667c23.467 0 42.667-19.2 42.667-42.667v-149.333c0-23.467-19.2-42.667-42.667-42.667h-149.333c-23.467 0-42.667 19.2-42.667 42.667v149.333c0 23.467 19.2 42.667 42.667 42.667h149.333M384 341.333h-149.333c-46.933 0-85.333-38.4-85.333-85.333v-149.333c0-46.933 38.4-85.333 85.333-85.333h149.333c46.933 0 85.333 38.4 85.333 85.333v149.333c0 46.933-38.4 85.333-85.333 85.333zM789.333 298.667c23.467 0 42.667-19.2 42.667-42.667v-149.333c0-23.467-19.2-42.667-42.667-42.667h-149.333c-23.467 0-42.667 19.2-42.667 42.667v149.333c0 23.467 19.2 42.667 42.667 42.667h149.333M789.333 341.333h-149.333c-46.933 0-85.333-38.4-85.333-85.333v-149.333c0-46.933 38.4-85.333 85.333-85.333h149.333c46.933 0 85.333 38.4 85.333 85.333v149.333c0 46.933-38.4 85.333-85.333 85.333z" />
<glyph unicode="&#xe76a;" glyph-name="submit" d="M526.293 853.333c19.541 0 36.267-16.683 36.267-36.267-0.344-16.582-11.559-30.452-26.79-34.795l-0.261-0.064-4.395-1.024-4.821-0.341h-303.019c-54.997 0-100.693-41.088-107.264-94.379l-0.64-6.997-0.213-6.741v-577.451c0-54.997 41.088-100.693 94.379-107.264l6.997-0.64 6.741-0.213h577.451c54.997 0 100.693 41.088 107.264 94.379l0.64 6.997 0.213 6.741v347.435c0 19.541 16.64 36.267 36.267 36.267 16.981 0 30.72-10.965 34.987-27.093l0.939-4.523 0.299-4.693v-347.392c-0.087-93.567-71.245-170.487-162.396-179.692l-0.761-0.062-8.704-0.64-8.747-0.213h-577.451c-93.567 0.087-170.487 71.245-179.692 162.396l-0.062 0.761-0.64 8.704-0.213 8.747v577.451c-0.001 0.264-0.002 0.576-0.002 0.888 0 93.392 71.273 170.137 162.394 178.811l0.723 0.056 8.747 0.64 8.747 0.213h303.019zM880 804.437c12.373 14.848 35.84 14.080 50.859 1.579 12.288-10.24 14.848-28.117 7.040-43.093l-2.645-4.352-3.584-4.267-529.067-527.36c-12.8-15.36-37.163-15.36-52.48 0-5.452 6.618-8.757 15.182-8.757 24.517 0 5.429 1.118 10.597 3.136 15.286l-0.096-0.251 2.432 4.992 4.053 5.547 529.067 527.36z" />
<glyph unicode="&#xe76b;" glyph-name="top" d="M186.155 468.139l-87.296-85.803c-5.996-5.87-14.212-9.492-23.275-9.492s-17.279 3.622-23.28 9.498l0.006-0.006c-5.937 5.814-9.617 13.912-9.617 22.869s3.68 17.055 9.612 22.864l0.006 0.005 413.269 406.357c11.982 11.69 28.381 18.902 46.464 18.902s34.482-7.211 46.478-18.915l-0.014 0.013 413.184-406.357c5.937-5.814 9.617-13.912 9.617-22.869s-3.68-17.055-9.612-22.864l-0.006-0.005c-5.996-5.87-14.212-9.492-23.275-9.492s-17.279 3.622-23.28 9.498l0.006-0.006-87.296 85.803s-210.731 207.232-293.205 288.427v-809.472c-0.144-17.917-14.702-32.385-32.639-32.385-0.090 0-0.181 0-0.271 0.001h0.014c-0.089-0.001-0.194-0.001-0.3-0.001-17.937 0-32.495 14.469-32.639 32.372v808.846l-292.693-287.787z" />
<glyph unicode="&#xe76c;" glyph-name="arrow-left-bold" d="M663.083 653.696c5.643-5.374 9.152-12.944 9.152-21.333s-3.509-15.959-9.14-21.322l-0.012-0.011-237.696-237.696 237.696-237.696c5.643-5.374 9.152-12.944 9.152-21.333s-3.509-15.959-9.14-21.322l-0.012-0.011c-5.374-5.643-12.944-9.152-21.333-9.152s-15.959 3.509-21.322 9.14l-0.011 0.012-259.029 259.029c-5.576 5.416-9.058 12.961-9.131 21.32v0.014c0 7.637 3.029 15.232 9.131 21.333l259.029 259.029c5.374 5.643 12.944 9.152 21.333 9.152s15.959-3.509 21.322-9.14l0.011-0.012z" />
<glyph unicode="&#xe78c;" glyph-name="phone" d="M570.973 324.98c-75.962-75.962-163.98-148.666-198.842-113.85-49.85 49.85-80.524 93.231-190.278 4.98s-25.507-147.13 22.714-195.398c55.668-55.622 263.261-2.932 468.48 202.193 205.126 205.126 257.908 412.719 202.147 468.48-48.221 48.221-107.055 132.655-195.258 22.714-88.25-109.754-44.916-140.567 4.841-190.278 34.909-34.816-37.702-122.88-113.804-198.842z" />
</font>
</defs>
</svg>
